# Blender v2.82 (sub 7) OBJ File: 'terrain.blend'
# www.blender.org
v 50.000000 0.000000 -50.000000
v -50.000000 0.000000 -50.000000
v 50.000000 0.000000 50.000000
v -50.000000 0.000000 50.000000
v 50.000000 0.000000 33.333332
v 50.000000 0.000000 16.666664
v 50.000000 0.000000 -0.000001
v 50.000000 0.000000 -16.666668
v 50.000000 0.000000 -33.333336
v 33.333332 0.000000 -50.000000
v 16.666664 0.000000 -50.000000
v -0.000001 0.000000 -50.000000
v -16.666668 0.000000 -50.000000
v -33.333336 0.000000 -50.000000
v -50.000000 0.000000 -33.333332
v -50.000000 0.000000 -16.666664
v -50.000000 0.000000 0.000001
v -50.000000 0.000000 16.666668
v -50.000000 0.000000 33.333336
v -33.333332 0.000000 50.000000
v -16.666664 0.000000 50.000000
v 0.000001 0.000000 50.000000
v 16.666668 0.000000 50.000000
v 33.333336 0.000000 50.000000
v 33.333332 0.000000 -33.333332
v 33.333332 0.000000 -16.666664
v 33.333332 0.000000 0.000001
v 33.333332 0.000000 16.666668
v 33.333332 0.000000 33.333336
v 16.666666 0.000000 -33.333332
v 16.666666 0.000000 -16.666664
v 16.666666 0.000000 0.000001
v 16.666668 0.000000 16.666668
v 16.666668 0.000000 33.333336
v -0.000001 0.000000 -33.333332
v -0.000000 0.000000 -16.666664
v 0.000000 0.000000 0.000001
v 0.000000 0.000000 16.666668
v 0.000001 0.000000 33.333336
v -16.666668 0.000000 -33.333332
v -16.666668 0.000000 -16.666664
v -16.666666 0.000000 0.000001
v -16.666666 0.000000 16.666668
v -16.666666 0.000000 33.333336
v -33.333336 0.000000 -33.333332
v -33.333336 0.000000 -16.666664
v -33.333336 0.000000 0.000001
v -33.333336 0.000000 16.666668
v -33.333332 0.000000 33.333336
v 50.000000 0.000000 -41.666668
v -41.666668 0.000000 -50.000000
v -50.000000 0.000000 41.666668
v 41.666668 0.000000 50.000000
v 50.000000 0.000000 41.666664
v 50.000000 0.000000 24.999996
v 50.000000 0.000000 8.333331
v 50.000000 0.000000 -8.333335
v 50.000000 0.000000 -25.000000
v 41.666664 0.000000 -50.000000
v 24.999996 0.000000 -50.000000
v 8.333331 0.000000 -50.000000
v -8.333335 0.000000 -50.000000
v -25.000000 0.000000 -50.000000
v -50.000000 0.000000 -41.666664
v -50.000000 0.000000 -24.999996
v -50.000000 0.000000 -8.333331
v -50.000000 0.000000 8.333335
v -50.000000 0.000000 25.000000
v -41.666664 0.000000 50.000000
v -24.999996 0.000000 50.000000
v -8.333331 0.000000 50.000000
v 8.333335 0.000000 50.000000
v 25.000000 0.000000 50.000000
v 33.333332 0.000000 41.666668
v 33.333332 0.000000 -41.666664
v 33.333332 0.000000 -24.999996
v 33.333332 0.000000 -8.333331
v 33.333332 0.000000 8.333335
v 33.333332 0.000000 25.000000
v 16.666668 0.000000 41.666668
v 16.666666 0.000000 -41.666664
v 16.666666 0.000000 -24.999996
v 16.666666 0.000000 -8.333331
v 16.666666 0.000000 8.333335
v 16.666668 0.000000 25.000000
v 0.000001 0.000000 41.666668
v -0.000001 0.000000 -41.666664
v -0.000001 0.000000 -24.999996
v -0.000000 0.000000 -8.333331
v 0.000000 0.000000 8.333335
v 0.000001 0.000000 25.000000
v -16.666666 0.000000 41.666668
v -16.666668 0.000000 -41.666664
v -16.666668 0.000000 -24.999996
v -16.666666 0.000000 -8.333331
v -16.666666 0.000000 8.333335
v -16.666666 0.000000 25.000000
v -33.333332 0.000000 41.666668
v -33.333336 0.000000 -41.666664
v -33.333336 0.000000 -24.999996
v -33.333336 0.000000 -8.333331
v -33.333336 0.000000 8.333335
v -33.333332 0.000000 25.000000
v 41.666664 0.000000 -33.333332
v 41.666664 0.000000 -16.666666
v 41.666664 0.000000 0.000000
v 41.666664 0.000000 16.666666
v 41.666664 0.000000 33.333332
v 24.999998 0.000000 -33.333332
v 24.999998 0.000000 -16.666664
v 24.999998 0.000000 0.000001
v 25.000000 0.000000 16.666668
v 25.000000 0.000000 33.333336
v 8.333333 0.000000 -33.333332
v 8.333332 0.000000 -16.666664
v 8.333333 0.000000 0.000001
v 8.333334 0.000000 16.666668
v 8.333334 0.000000 33.333336
v -8.333335 0.000000 -33.333332
v -8.333334 0.000000 -16.666664
v -8.333333 0.000000 0.000001
v -8.333333 0.000000 16.666668
v -8.333332 0.000000 33.333336
v -25.000000 0.000000 -33.333332
v -25.000000 0.000000 -16.666664
v -25.000000 0.000000 0.000001
v -25.000000 0.000000 16.666668
v -24.999998 0.000000 33.333336
v -41.666668 0.000000 -33.333332
v -41.666668 0.000000 -16.666664
v -41.666668 0.000000 0.000001
v -41.666668 0.000000 16.666668
v -41.666664 0.000000 33.333336
v -41.666668 0.000000 25.000000
v -41.666668 0.000000 8.333335
v -41.666668 0.000000 -8.333331
v -41.666668 0.000000 -24.999996
v -41.666668 0.000000 -41.666664
v -25.000000 0.000000 25.000000
v -25.000000 0.000000 8.333335
v -25.000000 0.000000 -8.333331
v -25.000000 0.000000 -24.999996
v -25.000000 0.000000 -41.666664
v -8.333333 0.000000 25.000000
v -8.333333 0.000000 8.333335
v -8.333333 0.000000 -8.333331
v -8.333334 0.000000 -24.999996
v -8.333335 0.000000 -41.666664
v 8.333334 0.000000 25.000000
v 8.333334 0.000000 8.333335
v 8.333333 0.000000 -8.333331
v 8.333333 0.000000 -24.999996
v 8.333332 0.000000 -41.666664
v 25.000000 0.000000 25.000000
v 25.000000 0.000000 8.333335
v 24.999998 0.000000 -8.333331
v 24.999998 0.000000 -24.999996
v 24.999996 0.000000 -41.666664
v 41.666664 0.000000 24.999998
v 41.666664 0.000000 8.333333
v 41.666664 0.000000 -8.333333
v 41.666664 0.000000 -24.999998
v 41.666664 0.000000 -41.666664
v -24.999996 0.000000 41.666668
v -8.333331 0.000000 41.666668
v 8.333334 0.000000 41.666668
v 25.000000 0.000000 41.666668
v 41.666668 0.000000 41.666664
v -41.666664 0.000000 41.666668
vt -7.008932 -5.757448
vt -5.757442 -7.008937
vt -5.757443 -5.757448
vt 5.505957 -5.757443
vt 6.757445 -7.008932
vt 6.757445 -5.757443
vt 3.002980 -5.757444
vt 4.254469 -7.008932
vt 4.254469 -5.757444
vt 0.500003 -5.757444
vt 1.751492 -7.008933
vt 1.751492 -5.757444
vt -2.002976 -5.757446
vt -0.751486 -7.008934
vt -0.751486 -5.757445
vt -4.505954 -5.757447
vt -3.254464 -7.008936
vt -3.254465 -5.757447
vt 5.505959 6.757446
vt 6.757447 5.505956
vt 6.757447 6.757446
vt 5.505958 4.254467
vt 6.757445 3.002977
vt 6.757446 4.254467
vt 5.505957 1.751489
vt 6.757446 0.500000
vt 6.757446 1.751489
vt 5.505957 -0.751489
vt 6.757446 -2.002977
vt 6.757446 -0.751489
vt 5.505957 -3.254467
vt 6.757445 -4.505955
vt 6.757446 -3.254466
vt 4.254470 6.757446
vt 3.002980 5.505955
vt 4.254469 5.505956
vt 3.002980 4.254466
vt 4.254468 3.002977
vt 4.254469 4.254467
vt 3.002979 1.751489
vt 4.254468 0.500000
vt 4.254468 1.751489
vt 4.254468 -0.751489
vt 3.002979 -2.002978
vt 4.254468 -2.002978
vt 3.002980 -3.254467
vt 4.254469 -4.505956
vt 4.254468 -3.254467
vt 0.500002 6.757447
vt 1.751491 5.505956
vt 1.751492 6.757446
vt 0.500002 4.254467
vt 1.751490 3.002977
vt 1.751491 4.254467
vt 0.500001 1.751488
vt 1.751490 0.499999
vt 1.751490 1.751488
vt 1.751490 -0.751490
vt 0.500001 -2.002979
vt 1.751490 -2.002979
vt 0.500002 -3.254467
vt 1.751491 -4.505956
vt 1.751491 -3.254467
vt -2.002978 6.757447
vt -0.751488 5.505957
vt -0.751488 6.757447
vt -0.751488 4.254467
vt -2.002977 3.002979
vt -0.751488 3.002978
vt -2.002977 1.751489
vt -0.751488 0.499999
vt -0.751488 1.751489
vt -2.002977 -0.751490
vt -0.751488 -2.002979
vt -0.751488 -0.751490
vt -2.002976 -3.254468
vt -0.751487 -4.505957
vt -0.751487 -3.254468
vt -4.505957 6.757448
vt -3.254467 5.505958
vt -3.254467 6.757448
vt -4.505957 4.254468
vt -3.254467 3.002978
vt -3.254467 4.254468
vt -4.505957 1.751488
vt -3.254467 0.499999
vt -3.254467 1.751489
vt -4.505956 -0.751490
vt -3.254466 -2.002979
vt -3.254467 -0.751490
vt -3.254466 -3.254468
vt -4.505954 -4.505959
vt -3.254465 -4.505958
vt -7.008936 6.757447
vt -5.757446 5.505958
vt -5.757446 6.757448
vt -7.008936 4.254467
vt -5.757446 3.002977
vt -5.757446 4.254467
vt -7.008935 1.751488
vt -5.757445 0.499999
vt -5.757446 1.751488
vt -7.008934 -0.751491
vt -5.757444 -2.002980
vt -5.757445 -0.751491
vt -5.757444 -3.254470
vt -7.008933 -4.505960
vt -5.757443 -4.505959
vt -4.505955 -3.254469
vt -4.505956 -2.002980
vt -7.008933 -2.002981
vt -4.505956 0.499999
vt -7.008934 0.499999
vt -4.505957 3.002977
vt -7.008936 3.002977
vt -4.505957 5.505958
vt -7.008936 5.505957
vt -5.757446 8.008938
vt -4.505957 8.008938
vt -7.008936 8.008938
vt -2.002976 -4.505957
vt -2.002977 -2.002979
vt -2.002977 0.500000
vt -2.002978 4.254468
vt -2.002978 5.505957
vt -3.254467 8.008938
vt -2.002978 8.008938
vt 0.500002 -4.505956
vt 0.500001 -0.751490
vt 0.500001 0.499999
vt 0.500001 3.002977
vt 0.500002 5.505957
vt -0.751488 8.008938
vt 0.500002 8.008938
vt 3.002980 -4.505956
vt 3.002979 -0.751489
vt 3.002979 0.500000
vt 3.002979 3.002977
vt 3.002981 6.757445
vt 3.002981 8.008936
vt 1.751492 8.008937
vt 5.505957 -4.505956
vt 5.505957 -2.002978
vt 5.505957 0.500000
vt 5.505957 3.002977
vt 5.505959 5.505957
vt 4.254470 8.008936
vt 5.505959 8.008936
vt 8.008934 -4.505955
vt 8.008935 -3.254466
vt 8.008936 -2.002977
vt 8.008936 -0.751488
vt 8.008936 0.500001
vt 8.008935 1.751489
vt 8.008934 3.002977
vt 8.008935 4.254466
vt 8.008936 5.505955
vt 8.008936 6.757445
vt 6.757447 8.008936
vt 8.008936 8.008935
vt -2.002975 -7.008936
vt 0.500003 -7.008933
vt 3.002980 -7.008933
vt 5.505957 -7.008932
vt 8.008934 -7.008932
vt 8.008934 -5.757443
vt -4.505953 -7.008936
vt -7.008932 -7.008937
vt -7.008933 -3.254470
vn 0.0000 1.0000 0.0000
s off
f 52/1/1 69/2/1 169/3/1
f 74/4/1 53/5/1 168/6/1
f 80/7/1 73/8/1 167/9/1
f 86/10/1 72/11/1 166/12/1
f 92/13/1 71/14/1 165/15/1
f 98/16/1 70/17/1 164/18/1
f 75/19/1 104/20/1 163/21/1
f 76/22/1 105/23/1 162/24/1
f 77/25/1 106/26/1 161/27/1
f 78/28/1 107/29/1 160/30/1
f 79/31/1 108/32/1 159/33/1
f 158/34/1 30/35/1 109/36/1
f 82/37/1 110/38/1 157/39/1
f 83/40/1 111/41/1 156/42/1
f 155/43/1 33/44/1 112/45/1
f 85/46/1 113/47/1 154/48/1
f 87/49/1 114/50/1 153/51/1
f 88/52/1 115/53/1 152/54/1
f 89/55/1 116/56/1 151/57/1
f 150/58/1 38/59/1 117/60/1
f 91/61/1 118/62/1 149/63/1
f 93/64/1 119/65/1 148/66/1
f 147/67/1 41/68/1 120/69/1
f 95/70/1 121/71/1 146/72/1
f 96/73/1 122/74/1 145/75/1
f 97/76/1 123/77/1 144/78/1
f 99/79/1 124/80/1 143/81/1
f 100/82/1 125/83/1 142/84/1
f 101/85/1 126/86/1 141/87/1
f 102/88/1 127/89/1 140/90/1
f 139/91/1 49/92/1 128/93/1
f 64/94/1 129/95/1 138/96/1
f 65/97/1 130/98/1 137/99/1
f 66/100/1 131/101/1 136/102/1
f 67/103/1 132/104/1 135/105/1
f 134/106/1 19/107/1 133/108/1
f 103/109/1 133/108/1 49/92/1
f 48/110/1 134/106/1 103/109/1
f 18/111/1 134/106/1 132/104/1
f 135/105/1 48/110/1 102/88/1
f 131/101/1 102/88/1 47/112/1
f 17/113/1 135/105/1 131/101/1
f 136/102/1 47/112/1 101/85/1
f 130/98/1 101/85/1 46/114/1
f 16/115/1 136/102/1 130/98/1
f 137/99/1 46/114/1 100/82/1
f 129/95/1 100/82/1 45/116/1
f 15/117/1 137/99/1 129/95/1
f 138/96/1 45/116/1 99/79/1
f 51/118/1 99/79/1 14/119/1
f 2/120/1 138/96/1 51/118/1
f 139/91/1 44/121/1 97/76/1
f 127/89/1 97/76/1 43/122/1
f 127/89/1 103/109/1 139/91/1
f 140/90/1 43/122/1 96/73/1
f 126/86/1 96/73/1 42/123/1
f 47/112/1 140/90/1 126/86/1
f 141/87/1 42/123/1 95/70/1
f 41/68/1 141/87/1 95/70/1
f 46/114/1 141/87/1 125/83/1
f 142/84/1 41/68/1 94/124/1
f 124/80/1 94/124/1 40/125/1
f 45/116/1 142/84/1 124/80/1
f 143/81/1 40/125/1 93/64/1
f 63/126/1 93/64/1 13/127/1
f 14/119/1 143/81/1 63/126/1
f 144/78/1 39/128/1 91/61/1
f 122/74/1 91/61/1 38/59/1
f 43/122/1 144/78/1 122/74/1
f 90/129/1 122/74/1 38/59/1
f 121/71/1 90/129/1 37/130/1
f 42/123/1 145/75/1 121/71/1
f 146/72/1 37/130/1 89/55/1
f 120/69/1 89/55/1 36/131/1
f 120/69/1 95/70/1 146/72/1
f 147/67/1 36/131/1 88/52/1
f 119/65/1 88/52/1 35/132/1
f 40/125/1 147/67/1 119/65/1
f 148/66/1 35/132/1 87/49/1
f 62/133/1 87/49/1 12/134/1
f 13/127/1 148/66/1 62/133/1
f 149/63/1 34/135/1 85/46/1
f 117/60/1 85/46/1 33/44/1
f 38/59/1 149/63/1 117/60/1
f 84/136/1 117/60/1 33/44/1
f 116/56/1 84/136/1 32/137/1
f 116/56/1 90/129/1 150/58/1
f 151/57/1 32/137/1 83/40/1
f 115/53/1 83/40/1 31/138/1
f 36/131/1 151/57/1 115/53/1
f 152/54/1 31/138/1 82/37/1
f 114/50/1 82/37/1 30/35/1
f 35/132/1 152/54/1 114/50/1
f 153/51/1 30/35/1 81/139/1
f 11/140/1 153/51/1 81/139/1
f 12/134/1 153/51/1 61/141/1
f 154/48/1 29/142/1 79/31/1
f 112/45/1 79/31/1 28/143/1
f 33/44/1 154/48/1 112/45/1
f 155/43/1 28/143/1 78/28/1
f 111/41/1 78/28/1 27/144/1
f 111/41/1 84/136/1 155/43/1
f 156/42/1 27/144/1 77/25/1
f 110/38/1 77/25/1 26/145/1
f 31/138/1 156/42/1 110/38/1
f 157/39/1 26/145/1 76/22/1
f 109/36/1 76/22/1 25/146/1
f 30/35/1 157/39/1 109/36/1
f 158/34/1 25/146/1 75/19/1
f 60/147/1 75/19/1 10/148/1
f 60/147/1 81/139/1 158/34/1
f 159/33/1 5/149/1 55/150/1
f 107/29/1 55/150/1 6/151/1
f 28/143/1 159/33/1 107/29/1
f 160/30/1 6/151/1 56/152/1
f 106/26/1 56/152/1 7/153/1
f 27/144/1 160/30/1 106/26/1
f 161/27/1 7/153/1 57/154/1
f 105/23/1 57/154/1 8/155/1
f 26/145/1 161/27/1 105/23/1
f 162/24/1 8/155/1 58/156/1
f 104/20/1 58/156/1 9/157/1
f 25/146/1 162/24/1 104/20/1
f 163/21/1 9/157/1 50/158/1
f 59/159/1 50/158/1 1/160/1
f 10/148/1 163/21/1 59/159/1
f 164/18/1 21/161/1 92/13/1
f 44/121/1 164/18/1 92/13/1
f 49/92/1 164/18/1 128/93/1
f 165/15/1 22/162/1 86/10/1
f 39/128/1 165/15/1 86/10/1
f 44/121/1 165/15/1 123/77/1
f 166/12/1 23/163/1 80/7/1
f 118/62/1 80/7/1 34/135/1
f 39/128/1 166/12/1 118/62/1
f 74/4/1 73/8/1 24/164/1
f 113/47/1 74/4/1 29/142/1
f 34/135/1 167/9/1 113/47/1
f 168/6/1 3/165/1 54/166/1
f 5/149/1 168/6/1 54/166/1
f 29/142/1 168/6/1 108/32/1
f 169/3/1 20/167/1 98/16/1
f 133/108/1 98/16/1 49/92/1
f 19/107/1 169/3/1 133/108/1
f 52/1/1 4/168/1 69/2/1
f 74/4/1 24/164/1 53/5/1
f 80/7/1 23/163/1 73/8/1
f 86/10/1 22/162/1 72/11/1
f 92/13/1 21/161/1 71/14/1
f 98/16/1 20/167/1 70/17/1
f 75/19/1 25/146/1 104/20/1
f 76/22/1 26/145/1 105/23/1
f 77/25/1 27/144/1 106/26/1
f 78/28/1 28/143/1 107/29/1
f 79/31/1 29/142/1 108/32/1
f 158/34/1 81/139/1 30/35/1
f 82/37/1 31/138/1 110/38/1
f 83/40/1 32/137/1 111/41/1
f 155/43/1 84/136/1 33/44/1
f 85/46/1 34/135/1 113/47/1
f 87/49/1 35/132/1 114/50/1
f 88/52/1 36/131/1 115/53/1
f 89/55/1 37/130/1 116/56/1
f 150/58/1 90/129/1 38/59/1
f 91/61/1 39/128/1 118/62/1
f 93/64/1 40/125/1 119/65/1
f 147/67/1 94/124/1 41/68/1
f 95/70/1 42/123/1 121/71/1
f 96/73/1 43/122/1 122/74/1
f 97/76/1 44/121/1 123/77/1
f 99/79/1 45/116/1 124/80/1
f 100/82/1 46/114/1 125/83/1
f 101/85/1 47/112/1 126/86/1
f 102/88/1 48/110/1 127/89/1
f 139/91/1 103/109/1 49/92/1
f 64/94/1 15/117/1 129/95/1
f 65/97/1 16/115/1 130/98/1
f 66/100/1 17/113/1 131/101/1
f 67/103/1 18/111/1 132/104/1
f 134/106/1 68/169/1 19/107/1
f 103/109/1 134/106/1 133/108/1
f 48/110/1 132/104/1 134/106/1
f 18/111/1 68/169/1 134/106/1
f 135/105/1 132/104/1 48/110/1
f 131/101/1 135/105/1 102/88/1
f 17/113/1 67/103/1 135/105/1
f 136/102/1 131/101/1 47/112/1
f 130/98/1 136/102/1 101/85/1
f 16/115/1 66/100/1 136/102/1
f 137/99/1 130/98/1 46/114/1
f 129/95/1 137/99/1 100/82/1
f 15/117/1 65/97/1 137/99/1
f 138/96/1 129/95/1 45/116/1
f 51/118/1 138/96/1 99/79/1
f 2/120/1 64/94/1 138/96/1
f 139/91/1 128/93/1 44/121/1
f 127/89/1 139/91/1 97/76/1
f 127/89/1 48/110/1 103/109/1
f 140/90/1 127/89/1 43/122/1
f 126/86/1 140/90/1 96/73/1
f 47/112/1 102/88/1 140/90/1
f 141/87/1 126/86/1 42/123/1
f 41/68/1 125/83/1 141/87/1
f 46/114/1 101/85/1 141/87/1
f 142/84/1 125/83/1 41/68/1
f 124/80/1 142/84/1 94/124/1
f 45/116/1 100/82/1 142/84/1
f 143/81/1 124/80/1 40/125/1
f 63/126/1 143/81/1 93/64/1
f 14/119/1 99/79/1 143/81/1
f 144/78/1 123/77/1 39/128/1
f 122/74/1 144/78/1 91/61/1
f 43/122/1 97/76/1 144/78/1
f 90/129/1 145/75/1 122/74/1
f 121/71/1 145/75/1 90/129/1
f 42/123/1 96/73/1 145/75/1
f 146/72/1 121/71/1 37/130/1
f 120/69/1 146/72/1 89/55/1
f 120/69/1 41/68/1 95/70/1
f 147/67/1 120/69/1 36/131/1
f 119/65/1 147/67/1 88/52/1
f 40/125/1 94/124/1 147/67/1
f 148/66/1 119/65/1 35/132/1
f 62/133/1 148/66/1 87/49/1
f 13/127/1 93/64/1 148/66/1
f 149/63/1 118/62/1 34/135/1
f 117/60/1 149/63/1 85/46/1
f 38/59/1 91/61/1 149/63/1
f 84/136/1 150/58/1 117/60/1
f 116/56/1 150/58/1 84/136/1
f 116/56/1 37/130/1 90/129/1
f 151/57/1 116/56/1 32/137/1
f 115/53/1 151/57/1 83/40/1
f 36/131/1 89/55/1 151/57/1
f 152/54/1 115/53/1 31/138/1
f 114/50/1 152/54/1 82/37/1
f 35/132/1 88/52/1 152/54/1
f 153/51/1 114/50/1 30/35/1
f 11/140/1 61/141/1 153/51/1
f 12/134/1 87/49/1 153/51/1
f 154/48/1 113/47/1 29/142/1
f 112/45/1 154/48/1 79/31/1
f 33/44/1 85/46/1 154/48/1
f 155/43/1 112/45/1 28/143/1
f 111/41/1 155/43/1 78/28/1
f 111/41/1 32/137/1 84/136/1
f 156/42/1 111/41/1 27/144/1
f 110/38/1 156/42/1 77/25/1
f 31/138/1 83/40/1 156/42/1
f 157/39/1 110/38/1 26/145/1
f 109/36/1 157/39/1 76/22/1
f 30/35/1 82/37/1 157/39/1
f 158/34/1 109/36/1 25/146/1
f 60/147/1 158/34/1 75/19/1
f 60/147/1 11/140/1 81/139/1
f 159/33/1 108/32/1 5/149/1
f 107/29/1 159/33/1 55/150/1
f 28/143/1 79/31/1 159/33/1
f 160/30/1 107/29/1 6/151/1
f 106/26/1 160/30/1 56/152/1
f 27/144/1 78/28/1 160/30/1
f 161/27/1 106/26/1 7/153/1
f 105/23/1 161/27/1 57/154/1
f 26/145/1 77/25/1 161/27/1
f 162/24/1 105/23/1 8/155/1
f 104/20/1 162/24/1 58/156/1
f 25/146/1 76/22/1 162/24/1
f 163/21/1 104/20/1 9/157/1
f 59/159/1 163/21/1 50/158/1
f 10/148/1 75/19/1 163/21/1
f 164/18/1 70/17/1 21/161/1
f 44/121/1 128/93/1 164/18/1
f 49/92/1 98/16/1 164/18/1
f 165/15/1 71/14/1 22/162/1
f 39/128/1 123/77/1 165/15/1
f 44/121/1 92/13/1 165/15/1
f 166/12/1 72/11/1 23/163/1
f 118/62/1 166/12/1 80/7/1
f 39/128/1 86/10/1 166/12/1
f 74/4/1 167/9/1 73/8/1
f 113/47/1 167/9/1 74/4/1
f 34/135/1 80/7/1 167/9/1
f 168/6/1 53/5/1 3/165/1
f 5/149/1 108/32/1 168/6/1
f 29/142/1 74/4/1 168/6/1
f 169/3/1 69/2/1 20/167/1
f 133/108/1 169/3/1 98/16/1
f 19/107/1 52/1/1 169/3/1
